<svg width="120" height="98" viewBox="0 0 120 98" fill="none" xmlns="http://www.w3.org/2000/svg">
<g opacity="0.8" clip-path="url(#clip0_1_644)">
<path d="M31.91 97.4799C37.76 97.03 43.0201 94.16 47.53 91.3699C52.31 88.41 56.4901 84.91 60.09 82.0399C61.3101 85.09 62.94 87.4599 67.22 87.1299C72.05 86.7499 76.19 82.7399 79.44 79.4899C83.0201 75.9099 86.4 72.2499 88.94 69.3099C88.9901 76.4899 93.06 81.5499 99.29 81.5299C104.97 81.5199 109.45 77.3799 112.87 73.2099C116.19 69.1599 119.15 63.8999 119.15 57.5899C119.15 55.4099 118.94 53.4799 118.3 51.8199C117.84 50.6299 116.49 48.3999 114.57 47.5799C108.33 44.91 102.51 52.4699 103.37 58.6099C103.62 60.3599 105.98 62.9399 107.95 62.8499C110.11 62.7499 111.87 60.5899 111.01 57.9299C110.44 57.7299 110.43 58.4299 110.33 58.6099C109.89 59.4499 109.39 60.7499 108.12 60.4799C106.93 60.2299 106.58 57.5199 106.76 56.2399C106.98 54.6899 109.75 51.2599 112.02 51.4899C114.04 51.6899 115.04 54.3599 115.24 57.0899C115.62 62.1799 113.17 66.3799 110.66 69.9899C108.33 73.3399 105.41 76.0599 102.34 77.2899C98.3 78.91 94.75 77.4599 93.18 74.3999C92.31 72.7 91.5 70.41 91.82 68.1199C91.95 67.2099 92.66 66.2499 93.18 65.0699C93.71 63.8499 94.0201 62.4899 94.37 61.8499C94.83 60.9899 95.7101 60.0099 96.41 58.9599C98.34 56.0899 100.44 52.7499 102.01 49.7899C103.03 47.8699 104.13 46.1899 105.4 43.3399C105.96 42.0999 108.41 36.7499 105.74 36.0399C104.51 35.7099 103.15 36.8399 102.18 38.0799C101.23 39.2899 100.39 40.4799 99.63 41.2999C94.99 46.3899 91.8 52.8799 90.13 60.1399C89.77 61.6799 89.87 63.5399 89.28 65.0599C89.02 65.7299 88.04 66.8499 87.24 67.7799C83.57 72.0499 79.5201 76.35 75.36 79.66C73.63 81.0399 71.68 82.5399 69.42 83.3899C68.47 83.7499 66.81 84.2399 65.86 84.0699C64.63 83.8499 62.64 81.3299 62.8 79.8299C62.94 78.4999 66.75 75.5399 68.23 74.0599C75.84 66.4499 82.59 57.7799 88.43 48.7699C89.89 46.5099 91.85 44.4899 93.52 42.4899C96.81 38.5399 100.88 33.4999 102.18 28.3999C103.75 22.2399 100.53 19.0099 96.24 17.1999C97.36 14.6299 97.51 10.7199 96.58 8.53995C93.61 1.53995 81.23 2.27995 73.16 4.12995C70.44 1.62995 67.87 -0.370055 62.1301 0.0599454C53.5301 0.689945 45.0401 5.68995 38.8801 10.0699C26.7401 18.6999 15.76 31.0499 7.98005 44.3599C3.99005 51.1899 -0.0599518 60.1999 4.82135e-05 69.1399C0.0400482 75.3499 2.10005 80.1999 5.43005 83.5699C8.17005 86.3299 11.58 88.1699 16.8 88.4899C19.14 94.1999 23.84 98.1 31.91 97.4799ZM103.88 40.2799C102.65 45.3899 99.62 50.1599 97.09 54.5399C98.45 49.5599 101.12 44.4299 103.88 40.2799ZM59.75 69.3099C55.34 71.9199 51.35 74.9399 44.3 74.91C43.69 74.85 44.5601 74.1499 44.8101 73.8899C49.7701 68.5999 56.74 63.9699 62.12 58.9499C61.5201 61.9199 60.0601 65.4899 59.75 69.3099ZM74.68 8.70995C79.1 8.61995 79.25 13.4099 78.41 17.1999C76.8901 17.3199 75.77 17.8399 74.34 18.0499C74.82 15.1999 75.29 11.6799 74.68 8.70995ZM79.94 20.4199C83.66 19.6799 88.29 19.2999 92.67 19.7399C92.1 21.6599 90.88 22.9299 89.95 24.4899C80.92 28.6899 74.84 35.5099 69.75 43.4999C68.48 45.4899 67.34 47.3999 66.19 49.6099C65.83 50.2999 65.59 51.2199 65.17 51.8199C64.08 53.3699 62.12 54.2099 61.1 55.7199C61.19 54.8999 61.84 54.2899 62.2901 53.6799C69.2801 44.1399 75.9201 33.1799 79.94 20.4199ZM86.56 28.7399C86.43 29.5799 85.73 30.2899 85.2 30.9499C81.44 35.5899 76.85 40.3099 72.64 44.6999C75.87 38.6399 81.09 33.1099 86.56 28.7399ZM71.12 66.9299C68.26 70.0099 65.4201 73.1999 62.46 75.5899C62.41 73.8399 62.65 72.3799 62.8 70.8399C68.7001 66.8399 74.08 62.3199 79.09 57.4299C76.94 60.6399 74 63.8299 71.12 66.9299ZM94.37 33.9999C93.3801 36.4999 92.2401 39.0999 90.98 40.9599C89.29 43.4399 86.72 45.5499 84.53 47.9199C78.36 54.5899 70.8201 61.4199 63.48 66.5899C65.0201 62.1099 65.41 57.5699 67.72 54.0299C68.48 52.8599 69.82 51.7599 70.94 50.6399C78.44 43.1399 86.1 35.4099 91.82 26.0299C92.61 25.8399 93.94 25.7299 94.71 26.0299C96.82 28.3999 95.2701 31.7399 94.37 33.9999ZM98.28 22.2899C100.6 24.9499 98.56 29.6899 97.09 31.9599C97.11 32.3799 96.88 32.2499 96.92 31.9599C98.1 28.6099 97.5 23.6099 93.36 23.9799C93.78 22.6499 94.53 21.6499 95.06 20.4199C96.37 21.0999 97.44 21.3399 98.28 22.2899ZM76.04 5.48994C82.82 4.02994 94.58 3.38995 95.39 10.7499C95.66 13.1999 94.8101 14.6199 94.37 16.6899C90.29 15.9499 84.89 16.0399 80.79 16.6899C81.92 10.9999 79.9 6.07995 74 6.33995C74.35 5.69995 75.38 5.62994 76.04 5.48994ZM73.49 22.1199C74.73 21.7699 75.93 21.3999 77.22 21.0999C70.7001 38.1099 61.08 52.02 50.07 64.5499C50.0201 64.8999 49.6101 64.88 49.5601 65.2299C49.4201 65.2599 49.39 65.3999 49.2201 65.3999C49.25 65.2599 49.39 65.2299 49.39 65.0599C59.72 53.0399 68.29 39.2599 73.49 22.1199ZM72.99 11.0899C72.98 13.5899 72.2 16.8199 71.63 18.8999C56.22 23.3999 44.23 31.3299 33.1 40.1199C39.95 30.4499 48.89 20.6399 59.75 13.9799C63.6 11.6199 67.8 9.46995 72.31 8.71995C73.31 8.99995 72.99 10.3499 72.99 11.0899ZM27.16 43.1699C26.08 44.8899 25.31 46.9199 24.1 48.5999C23.03 50.0899 21.53 51.2799 20.37 52.6699C16.99 56.7499 13.84 61.5199 11.71 66.9299C11.3 59.2999 14.04 52.9599 16.97 47.5799C25.66 31.6299 40.3801 20.9499 56.5201 12.4499C55.9201 13.2699 54.91 13.6099 54.14 14.1499C43.5601 21.5899 34.19 31.9199 27.16 43.1699ZM3.40005 69.6499C3.32005 60.6299 7.43005 51.9199 11.21 45.3799C18.77 32.2899 29.34 20.6699 41.42 11.7699C47.37 7.38995 54.6401 2.56995 63.4901 1.92995C66.0201 1.73995 69.96 2.40995 70.96 4.63995C49.47 10.5799 28.8 23.1499 16.99 40.7899C13.01 46.7299 9.36005 54.4299 8.84005 62.6899C8.74005 64.3499 8.73005 66.1099 8.84005 67.7799C8.98005 69.8399 9.76005 71.4299 10.03 73.3799C10.19 74.5399 9.90005 75.6799 10.03 76.5999C10.47 79.6799 12.25 81.3299 14.27 82.8799C14.97 83.4099 15.08 83.02 15.46 83.8999C15.63 84.2999 15.53 84.8199 15.8 85.5999C7.38005 84.2199 3.46005 77.5099 3.40005 69.6499ZM15.11 77.2799C11.17 74.4199 15.86 67.1399 17.32 64.0399C16.64 67.84 15.05 72.1899 15.11 77.2799ZM22.58 59.6299C23.39 57.6499 23.96 55.4299 24.96 53.8599C25.91 52.3599 28.08 50.3199 29.54 48.9399C34.2701 44.4699 39.7401 40.0099 44.9901 36.3799C52.7201 31.0299 61.5201 26.3399 69.94 23.3099C70.08 23.2799 70.1 23.3799 70.11 23.4799C63.37 40.7299 53.54 55.6999 41.92 68.2899C41.28 68.9799 40.5301 70.1799 39.5401 70.3299C40.8601 60.2599 44.8701 52.3799 50.0601 45.8899C51.7801 43.7399 53.5201 41.5299 55.4901 39.7799C56.5601 38.8299 58.08 38.4899 58.71 37.0599C57.4 35.5899 54.7801 37.0099 53.4501 37.7399C48.8801 40.2399 45.33 44.0099 42.25 48.0899C40.26 50.7199 38.32 53.8299 37.16 57.4199C35.69 61.9699 34.7901 68.8499 36.82 73.2099C34.3101 75.5399 30.95 77.6099 26.98 79.1499C23.99 80.31 21.28 81.3999 18.15 79.8299C17.96 72.3199 20.26 65.3099 22.58 59.6299ZM18.67 83.8999C25.46 83.7899 30.14 81.56 34.46 78.9799C32.72 80.59 30.25 81.9999 27.67 83.2199C25.15 84.4199 22.25 85.4699 19.01 85.7699C18.92 85.1299 18.6 84.7099 18.67 83.8999ZM20.03 88.3199C29.56 86.8799 35.4701 81.8099 41.59 76.9499C48.32 78.9999 54.6301 75.6199 59.07 73.2199C58.7701 74.4799 59.7201 76.6799 59.2401 78.4799C59.0501 79.1799 57.44 80.4399 56.35 81.3699C51.34 85.63 45.9001 89.66 39.3801 92.3999C36.64 93.5499 33.48 94.5699 30.38 94.6099C25.42 94.6499 21.7 92.0599 20.03 88.3199Z" fill="#142C44"/>
</g>
<defs>
<clipPath id="clip0_1_644">
<rect width="119.15" height="97.55" fill="white"/>
</clipPath>
</defs>
</svg>
