<svg width="187" height="75" viewBox="0 0 187 75" fill="none" xmlns="http://www.w3.org/2000/svg">
<path d="M72.225 27.7554H62.9644C62.3309 27.7554 61.7918 28.2002 61.6927 28.8057L57.9474 51.7676C57.8817 52.1749 58.1697 52.5562 58.5909 52.6203C58.6304 52.6262 58.6706 52.6294 58.7114 52.6294H63.1325C63.7666 52.6294 64.3057 52.1833 64.4042 51.5779L65.4147 45.3845C65.5124 44.7797 66.0515 44.3335 66.685 44.3329H69.6167C75.7172 44.3329 79.2376 41.4787 80.157 35.8221C80.5716 33.3473 80.1745 31.4028 78.9764 30.0411C77.6599 28.546 75.3255 27.7548 72.2264 27.7548L72.225 27.7554ZM73.2931 36.1419C72.7869 39.3549 70.2475 39.3549 67.7926 39.3549H66.395L67.3754 33.3544C67.435 32.9918 67.7578 32.7244 68.1375 32.7244H68.7776C70.4498 32.7244 72.0275 32.7244 72.8424 33.6464C73.3286 34.1962 73.4773 35.0133 73.2918 36.1419H73.2931ZM99.9071 36.0383H95.4726C95.093 36.0383 94.7695 36.3057 94.7106 36.6684L94.5144 37.8675L94.2043 37.4331C93.244 36.0856 91.1032 35.6356 88.9663 35.6356C84.0658 35.6356 79.8798 39.2247 79.0648 44.2591C78.6409 46.7701 79.2436 49.1717 80.7169 50.8462C82.0682 52.386 84.0022 53.0276 86.3024 53.0276C90.2514 53.0276 92.4405 50.5729 92.4405 50.5729L92.2429 51.7643C92.1753 52.1716 92.4626 52.5543 92.8831 52.6191C92.9233 52.6255 92.9635 52.6281 93.0036 52.6281H96.9981C97.6323 52.6281 98.1713 52.182 98.2698 51.5766L100.666 36.9002C100.734 36.4948 100.448 36.1128 100.029 36.048C99.9888 36.0416 99.9479 36.0383 99.9071 36.0383ZM93.7255 44.3841C93.2976 46.8336 91.2867 48.4782 88.7219 48.4782C87.4341 48.4782 86.4049 48.0787 85.7439 47.3218C85.0884 46.57 84.8392 45.5004 85.0482 44.3089C85.448 41.8801 87.4924 40.1817 90.0177 40.1817C91.2773 40.1817 92.3005 40.5864 92.9748 41.3498C93.6505 42.121 93.9184 43.1972 93.7249 44.3834L93.7255 44.3841ZM123.526 36.0383H119.069C118.643 36.039 118.243 36.2436 118.004 36.5842L111.858 45.3385L109.252 36.9261C109.088 36.399 108.586 36.0383 108.017 36.0383H103.638C103.211 36.037 102.865 36.3705 102.864 36.783C102.864 36.8658 102.878 36.9474 102.905 37.0258L107.814 50.9543L103.199 57.2533C102.952 57.5893 103.034 58.0555 103.381 58.2938C103.512 58.3838 103.669 58.4317 103.829 58.4317H108.28C108.702 58.4317 109.097 58.2329 109.337 57.8975L124.159 37.2097C124.402 36.871 124.315 36.4061 123.965 36.1711C123.836 36.0843 123.682 36.0377 123.525 36.0377L123.526 36.0383Z" fill="#253B80"/>
<path d="M138.28 27.7554H129.018C128.385 27.7554 127.846 28.2009 127.748 28.8057L124.003 51.7676C123.936 52.1743 124.223 52.5556 124.643 52.6197C124.683 52.6256 124.723 52.6288 124.763 52.6288H129.516C129.96 52.6288 130.336 52.3161 130.405 51.8932L131.468 45.3845C131.566 44.7797 132.105 44.3336 132.738 44.3329H135.669C141.77 44.3329 145.289 41.4787 146.21 35.8221C146.626 33.3473 146.226 31.4029 145.028 30.0411C143.714 28.5461 141.38 27.7548 138.281 27.7548L138.28 27.7554ZM139.348 36.142C138.843 39.3549 136.304 39.3549 133.848 39.3549H132.452L133.433 33.3544C133.492 32.9918 133.814 32.7244 134.194 32.7244H134.834C136.505 32.7244 138.084 32.7244 138.899 33.6465C139.385 34.1962 139.532 35.0134 139.347 36.142H139.348ZM165.961 36.0384H161.529C161.149 36.0371 160.826 36.3051 160.768 36.6684L160.572 37.8676L160.261 37.4331C159.301 36.0856 157.161 35.6356 155.024 35.6356C150.124 35.6356 145.94 39.2247 145.124 44.2591C144.702 46.7702 145.302 49.1718 146.775 50.8462C148.129 52.386 150.06 53.0277 152.36 53.0277C156.309 53.0277 158.498 50.573 158.498 50.573L158.301 51.7644C158.233 52.1717 158.52 52.5543 158.941 52.6191C158.982 52.6256 159.023 52.6288 159.064 52.6282H163.057C163.691 52.6282 164.229 52.182 164.328 51.5766L166.726 36.9002C166.791 36.4923 166.501 36.1102 166.079 36.0474C166.04 36.0416 166 36.0384 165.961 36.039V36.0384ZM159.779 44.3841C159.354 46.8336 157.341 48.4783 154.776 48.4783C153.491 48.4783 152.459 48.0788 151.798 47.3218C151.142 46.5701 150.896 45.5004 151.102 44.309C151.505 41.8802 153.546 40.1818 156.072 40.1818C157.331 40.1818 158.354 40.5865 159.029 41.3499C159.707 42.1211 159.975 43.1972 159.779 44.3834L159.779 44.3841ZM171.189 28.3855L167.388 51.7676C167.322 52.1743 167.608 52.5556 168.028 52.6197C168.068 52.6256 168.109 52.6288 168.149 52.6288H171.97C172.605 52.6288 173.144 52.1833 173.241 51.5773L176.989 28.6166C177.056 28.2093 176.768 27.8273 176.347 27.7632C176.308 27.7574 176.268 27.7542 176.228 27.7542H171.949C171.569 27.7554 171.247 28.0229 171.188 28.3855H171.189Z" fill="#179BD7"/>
<path d="M19.4887 57.0914L20.1972 52.7415L18.6195 52.7059H11.0866L16.3213 20.6108C16.3534 20.4082 16.5342 20.2586 16.7465 20.2599H29.4485C33.6653 20.2599 36.5749 21.1081 38.0943 22.7832C38.8068 23.5687 39.2602 24.3897 39.4798 25.293C39.7102 26.2409 39.7142 27.3734 39.4892 28.7552L39.4731 28.8562V29.7414L40.1857 30.1318C40.7294 30.3979 41.2183 30.7586 41.6281 31.195C42.2375 31.8665 42.6312 32.7205 42.798 33.7326C42.9701 34.7738 42.9131 36.0125 42.6312 37.4143C42.3064 39.0273 41.7808 40.4324 41.0716 41.5817C40.4455 42.6119 39.6037 43.5035 38.6006 44.2002C37.6584 44.8471 36.5381 45.3379 35.2724 45.6526C34.0456 45.9614 32.6467 46.1175 31.1125 46.1175H30.1241C29.417 46.1175 28.7306 46.3635 28.1915 46.8051C27.6531 47.2513 27.2962 47.867 27.1844 48.5437L27.11 48.9354L25.8591 56.6019L25.8022 56.8836C25.7875 56.9729 25.7614 57.017 25.7239 57.0474C25.687 57.0765 25.6415 57.0927 25.5939 57.0934H19.4907L19.4887 57.0914Z" fill="#253B80"/>
<path d="M40.8592 28.9579C40.8211 29.1923 40.7782 29.4319 40.7293 29.6779C39.0545 37.9939 33.3237 40.8662 26.0044 40.8662H22.2778C21.3824 40.8662 20.6284 41.4949 20.4891 42.3483L18.5813 54.0488L18.0409 57.3653C17.9585 57.8685 18.3134 58.3405 18.8337 58.4201C18.8826 58.4279 18.9322 58.4311 18.9824 58.4311H25.5919C26.3747 58.4311 27.0396 57.8814 27.1629 57.1348L27.2278 56.8104L28.472 49.1744L28.5517 48.7554C28.6736 48.0063 29.3399 47.4565 30.1227 47.4565H31.1111C37.515 47.4565 42.528 44.9429 43.9932 37.6682C44.6053 34.6294 44.2885 32.0918 42.6686 30.3073C42.155 29.755 41.5423 29.2985 40.8592 28.9585V28.9579Z" fill="#179BD7"/>
<path d="M39.1074 28.2818C38.5723 28.1322 38.0286 28.0157 37.4781 27.9321C36.3913 27.7709 35.2924 27.6932 34.1928 27.7003H24.2371C23.4543 27.7003 22.788 28.2514 22.6674 28.9992L20.5493 41.9695L20.4884 42.3476C20.625 41.4942 21.3844 40.8648 22.277 40.8655H26.0037C33.3229 40.8655 39.0532 37.9912 40.7286 29.6772C40.7789 29.4311 40.821 29.1915 40.8585 28.9572C40.4166 28.7331 39.9559 28.5453 39.4811 28.3958C39.3565 28.3556 39.232 28.3181 39.1061 28.2818H39.1074Z" fill="#222D65"/>
<path d="M22.6675 28.9993C22.7867 28.2507 23.4537 27.6991 24.2372 27.7016H34.1929C35.3721 27.7016 36.473 27.7761 37.4782 27.9335C38.1579 28.0371 38.8289 28.1912 39.4838 28.3958C39.978 28.5544 40.4374 28.7415 40.8613 28.9572C41.3595 25.8841 40.8572 23.792 39.1389 21.8974C37.2431 19.8118 33.8239 18.9189 29.4491 18.9189H16.7471C15.8531 18.9189 15.091 19.5476 14.9531 20.4023L9.66218 52.8282C9.56776 53.4038 9.97424 53.9445 10.5696 54.0358C10.6258 54.0442 10.6821 54.0487 10.739 54.0487H18.5806L20.5494 41.9701L22.6675 28.9999V28.9993Z" fill="#253B80"/>
</svg>
